<?xml version="1.0" encoding="UTF-8" standalone="no"?>
<!DOCTYPE svg PUBLIC "-//W3C//DTD SVG 1.1//EN"
 "http://www.w3.org/Graphics/SVG/1.1/DTD/svg11.dtd">
<!-- Generated by graphviz version 2.26.3 (20100126.1600)
 -->
<!-- Title: controllers_diagram Pages: 1 -->
<svg width="819pt" height="740pt"
 viewBox="0.00 0.00 819.00 740.00" xmlns="http://www.w3.org/2000/svg" xmlns:xlink="http://www.w3.org/1999/xlink">
<g id="graph1" class="graph" transform="scale(1 1) rotate(0) translate(4 736)">
<title>controllers_diagram</title>
<polygon fill="white" stroke="white" points="-4,5 -4,-736 816,-736 816,5 -4,5"/>
<!-- _diagram_info -->
<g id="node1" class="node"><title>_diagram_info</title>
<text text-anchor="start" x="207" y="-705.3" font-family="Times Roman,serif" font-size="13.00">Controllers diagram</text>
<text text-anchor="start" x="207" y="-688.3" font-family="Times Roman,serif" font-size="13.00">Date: May 12 2014 &#45; 04:22</text>
<text text-anchor="start" x="207" y="-671.3" font-family="Times Roman,serif" font-size="13.00">Migration version: 20140308013942</text>
<text text-anchor="start" x="207" y="-654.3" font-family="Times Roman,serif" font-size="13.00">Generated by RailRoady 1.1.0</text>
<text text-anchor="start" x="207" y="-637.3" font-family="Times Roman,serif" font-size="13.00">http://railroady.prestonlee.com</text>
</g>
<!-- StaticPagesController -->
<g id="node2" class="node"><title>StaticPagesController</title>
<polyline fill="none" stroke="black" points="13,-65.1751 154,-65.1751 "/>
<path fill="none" stroke="black" d="M154,-65.1751C160,-65.1751 166,-71.1751 166,-77.1751"/>
<polyline fill="none" stroke="black" points="166,-77.1751 166,-317.175 "/>
<path fill="none" stroke="black" d="M166,-317.175C166,-323.175 160,-329.175 154,-329.175"/>
<polyline fill="none" stroke="black" points="154,-329.175 13,-329.175 "/>
<path fill="none" stroke="black" d="M13,-329.175C7,-329.175 1,-323.175 1,-317.175"/>
<polyline fill="none" stroke="black" points="1,-317.175 1,-77.1751 "/>
<path fill="none" stroke="black" d="M1,-77.1751C1,-71.1751 7,-65.1751 13,-65.1751"/>
<text text-anchor="middle" x="83.5" y="-312.575" font-family="Times Roman,serif" font-size="14.00">StaticPagesController</text>
<polyline fill="none" stroke="black" points="1,-303.175 166,-303.175 "/>
<text text-anchor="start" x="9" y="-286.575" font-family="Times Roman,serif" font-size="14.00">about_me</text>
<text text-anchor="start" x="9" y="-268.575" font-family="Times Roman,serif" font-size="14.00">activity_logging</text>
<text text-anchor="start" x="9" y="-250.575" font-family="Times Roman,serif" font-size="14.00">actual_state</text>
<text text-anchor="start" x="9" y="-232.575" font-family="Times Roman,serif" font-size="14.00">feedback</text>
<text text-anchor="start" x="9" y="-214.575" font-family="Times Roman,serif" font-size="14.00">home</text>
<text text-anchor="start" x="9" y="-196.575" font-family="Times Roman,serif" font-size="14.00">installation</text>
<text text-anchor="start" x="9" y="-178.575" font-family="Times Roman,serif" font-size="14.00">installation_detailed</text>
<text text-anchor="start" x="9" y="-160.575" font-family="Times Roman,serif" font-size="14.00">security</text>
<text text-anchor="start" x="9" y="-142.575" font-family="Times Roman,serif" font-size="14.00">to_fix</text>
<text text-anchor="start" x="9" y="-124.575" font-family="Times Roman,serif" font-size="14.00">we_help</text>
<polyline fill="none" stroke="black" points="1,-115.175 166,-115.175 "/>
<polyline fill="none" stroke="black" points="1,-91.1751 166,-91.1751 "/>
<text text-anchor="start" x="9" y="-74.5751" font-family="Times Roman,serif" font-size="14.00">_layout</text>
</g>
<!-- UserController -->
<g id="node3" class="node"><title>UserController</title>
<polyline fill="none" stroke="black" points="46,-628.5 139,-628.5 "/>
<path fill="none" stroke="black" d="M139,-628.5C145,-628.5 151,-634.5 151,-640.5"/>
<polyline fill="none" stroke="black" points="151,-640.5 151,-718.5 "/>
<path fill="none" stroke="black" d="M151,-718.5C151,-724.5 145,-730.5 139,-730.5"/>
<polyline fill="none" stroke="black" points="139,-730.5 46,-730.5 "/>
<path fill="none" stroke="black" d="M46,-730.5C40,-730.5 34,-724.5 34,-718.5"/>
<polyline fill="none" stroke="black" points="34,-718.5 34,-640.5 "/>
<path fill="none" stroke="black" d="M34,-640.5C34,-634.5 40,-628.5 46,-628.5"/>
<text text-anchor="middle" x="92.5" y="-713.9" font-family="Times Roman,serif" font-size="14.00">UserController</text>
<polyline fill="none" stroke="black" points="34,-704.5 151,-704.5 "/>
<text text-anchor="start" x="42" y="-687.9" font-family="Times Roman,serif" font-size="14.00">update_ip</text>
<polyline fill="none" stroke="black" points="34,-678.5 151,-678.5 "/>
<polyline fill="none" stroke="black" points="34,-654.5 151,-654.5 "/>
<text text-anchor="start" x="42" y="-637.9" font-family="Times Roman,serif" font-size="14.00">_layout</text>
</g>
<!-- ClipboardController -->
<g id="node4" class="node"><title>ClipboardController</title>
<polyline fill="none" stroke="black" points="673,-1.5 798,-1.5 "/>
<path fill="none" stroke="black" d="M798,-1.5C804,-1.5 810,-7.5 810,-13.5"/>
<polyline fill="none" stroke="black" points="810,-13.5 810,-109.5 "/>
<path fill="none" stroke="black" d="M810,-109.5C810,-115.5 804,-121.5 798,-121.5"/>
<polyline fill="none" stroke="black" points="798,-121.5 673,-121.5 "/>
<path fill="none" stroke="black" d="M673,-121.5C667,-121.5 661,-115.5 661,-109.5"/>
<polyline fill="none" stroke="black" points="661,-109.5 661,-13.5 "/>
<path fill="none" stroke="black" d="M661,-13.5C661,-7.5 667,-1.5 673,-1.5"/>
<text text-anchor="middle" x="735.5" y="-104.9" font-family="Times Roman,serif" font-size="14.00">ClipboardController</text>
<polyline fill="none" stroke="black" points="661,-95.5 810,-95.5 "/>
<text text-anchor="start" x="669" y="-78.9" font-family="Times Roman,serif" font-size="14.00">copied</text>
<text text-anchor="start" x="669" y="-60.9" font-family="Times Roman,serif" font-size="14.00">pasted</text>
<polyline fill="none" stroke="black" points="661,-51.5 810,-51.5 "/>
<polyline fill="none" stroke="black" points="661,-27.5 810,-27.5 "/>
<text text-anchor="start" x="669" y="-10.9" font-family="Times Roman,serif" font-size="14.00">_layout</text>
</g>
<!-- LogSoftwareController -->
<g id="node5" class="node"><title>LogSoftwareController</title>
<polyline fill="none" stroke="black" points="461.101,-254.791 609.101,-254.791 "/>
<path fill="none" stroke="black" d="M609.101,-254.791C615.101,-254.791 621.101,-260.791 621.101,-266.791"/>
<polyline fill="none" stroke="black" points="621.101,-266.791 621.101,-380.791 "/>
<path fill="none" stroke="black" d="M621.101,-380.791C621.101,-386.791 615.101,-392.791 609.101,-392.791"/>
<polyline fill="none" stroke="black" points="609.101,-392.791 461.101,-392.791 "/>
<path fill="none" stroke="black" d="M461.101,-392.791C455.101,-392.791 449.101,-386.791 449.101,-380.791"/>
<polyline fill="none" stroke="black" points="449.101,-380.791 449.101,-266.791 "/>
<path fill="none" stroke="black" d="M449.101,-266.791C449.101,-260.791 455.101,-254.791 461.101,-254.791"/>
<text text-anchor="middle" x="535.101" y="-376.191" font-family="Times Roman,serif" font-size="14.00">LogSoftwareController</text>
<polyline fill="none" stroke="black" points="449.101,-366.791 621.101,-366.791 "/>
<text text-anchor="start" x="457.101" y="-350.191" font-family="Times Roman,serif" font-size="14.00">create</text>
<text text-anchor="start" x="457.101" y="-332.191" font-family="Times Roman,serif" font-size="14.00">index</text>
<text text-anchor="start" x="457.101" y="-314.191" font-family="Times Roman,serif" font-size="14.00">show</text>
<polyline fill="none" stroke="black" points="449.101,-304.791 621.101,-304.791 "/>
<polyline fill="none" stroke="black" points="449.101,-280.791 621.101,-280.791 "/>
<text text-anchor="start" x="457.101" y="-264.191" font-family="Times Roman,serif" font-size="14.00">_layout</text>
</g>
<!-- GraphsController -->
<g id="node6" class="node"><title>GraphsController</title>
<polyline fill="none" stroke="black" points="212.916,-59.9818 323.916,-59.9818 "/>
<path fill="none" stroke="black" d="M323.916,-59.9818C329.916,-59.9818 335.916,-65.9818 335.916,-71.9818"/>
<polyline fill="none" stroke="black" points="335.916,-71.9818 335.916,-167.982 "/>
<path fill="none" stroke="black" d="M335.916,-167.982C335.916,-173.982 329.916,-179.982 323.916,-179.982"/>
<polyline fill="none" stroke="black" points="323.916,-179.982 212.916,-179.982 "/>
<path fill="none" stroke="black" d="M212.916,-179.982C206.916,-179.982 200.916,-173.982 200.916,-167.982"/>
<polyline fill="none" stroke="black" points="200.916,-167.982 200.916,-71.9818 "/>
<path fill="none" stroke="black" d="M200.916,-71.9818C200.916,-65.9818 206.916,-59.9818 212.916,-59.9818"/>
<text text-anchor="middle" x="268.416" y="-163.382" font-family="Times Roman,serif" font-size="14.00">GraphsController</text>
<polyline fill="none" stroke="black" points="200.916,-153.982 335.916,-153.982 "/>
<text text-anchor="start" x="208.916" y="-137.382" font-family="Times Roman,serif" font-size="14.00">index</text>
<text text-anchor="start" x="208.916" y="-119.382" font-family="Times Roman,serif" font-size="14.00">show</text>
<polyline fill="none" stroke="black" points="200.916,-109.982 335.916,-109.982 "/>
<polyline fill="none" stroke="black" points="200.916,-85.9818 335.916,-85.9818 "/>
<text text-anchor="start" x="208.916" y="-69.3818" font-family="Times Roman,serif" font-size="14.00">_layout</text>
</g>
<!-- ActivitiesController -->
<g id="node7" class="node"><title>ActivitiesController</title>
<polyline fill="none" stroke="black" points="37.5191,-427.241 161.519,-427.241 "/>
<path fill="none" stroke="black" d="M161.519,-427.241C167.519,-427.241 173.519,-433.241 173.519,-439.241"/>
<polyline fill="none" stroke="black" points="173.519,-439.241 173.519,-535.241 "/>
<path fill="none" stroke="black" d="M173.519,-535.241C173.519,-541.241 167.519,-547.241 161.519,-547.241"/>
<polyline fill="none" stroke="black" points="161.519,-547.241 37.5191,-547.241 "/>
<path fill="none" stroke="black" d="M37.5191,-547.241C31.5191,-547.241 25.5191,-541.241 25.5191,-535.241"/>
<polyline fill="none" stroke="black" points="25.5191,-535.241 25.5191,-439.241 "/>
<path fill="none" stroke="black" d="M25.5191,-439.241C25.5191,-433.241 31.5191,-427.241 37.5191,-427.241"/>
<text text-anchor="middle" x="99.5191" y="-530.641" font-family="Times Roman,serif" font-size="14.00">ActivitiesController</text>
<polyline fill="none" stroke="black" points="25.5191,-521.241 173.519,-521.241 "/>
<text text-anchor="start" x="33.5191" y="-504.641" font-family="Times Roman,serif" font-size="14.00">context</text>
<text text-anchor="start" x="33.5191" y="-486.641" font-family="Times Roman,serif" font-size="14.00">show</text>
<polyline fill="none" stroke="black" points="25.5191,-477.241 173.519,-477.241 "/>
<polyline fill="none" stroke="black" points="25.5191,-453.241 173.519,-453.241 "/>
<text text-anchor="start" x="33.5191" y="-436.641" font-family="Times Roman,serif" font-size="14.00">_layout</text>
</g>
<!-- VideoController -->
<g id="node8" class="node"><title>VideoController</title>
<polyline fill="none" stroke="black" points="482.718,-454.152 581.718,-454.152 "/>
<path fill="none" stroke="black" d="M581.718,-454.152C587.718,-454.152 593.718,-460.152 593.718,-466.152"/>
<polyline fill="none" stroke="black" points="593.718,-466.152 593.718,-580.152 "/>
<path fill="none" stroke="black" d="M593.718,-580.152C593.718,-586.152 587.718,-592.152 581.718,-592.152"/>
<polyline fill="none" stroke="black" points="581.718,-592.152 482.718,-592.152 "/>
<path fill="none" stroke="black" d="M482.718,-592.152C476.718,-592.152 470.718,-586.152 470.718,-580.152"/>
<polyline fill="none" stroke="black" points="470.718,-580.152 470.718,-466.152 "/>
<path fill="none" stroke="black" d="M470.718,-466.152C470.718,-460.152 476.718,-454.152 482.718,-454.152"/>
<text text-anchor="middle" x="532.218" y="-575.552" font-family="Times Roman,serif" font-size="14.00">VideoController</text>
<polyline fill="none" stroke="black" points="470.718,-566.152 593.718,-566.152 "/>
<text text-anchor="start" x="478.718" y="-549.552" font-family="Times Roman,serif" font-size="14.00">clear_name</text>
<text text-anchor="start" x="478.718" y="-531.552" font-family="Times Roman,serif" font-size="14.00">create</text>
<text text-anchor="start" x="478.718" y="-513.552" font-family="Times Roman,serif" font-size="14.00">parse_youtube</text>
<polyline fill="none" stroke="black" points="470.718,-504.152 593.718,-504.152 "/>
<polyline fill="none" stroke="black" points="470.718,-480.152 593.718,-480.152 "/>
<text text-anchor="start" x="478.718" y="-463.552" font-family="Times Roman,serif" font-size="14.00">_layout</text>
</g>
<!-- SoftwareController -->
<g id="node9" class="node"><title>SoftwareController</title>
<polyline fill="none" stroke="black" points="673,-463.5 797,-463.5 "/>
<path fill="none" stroke="black" d="M797,-463.5C803,-463.5 809,-469.5 809,-475.5"/>
<polyline fill="none" stroke="black" points="809,-475.5 809,-589.5 "/>
<path fill="none" stroke="black" d="M809,-589.5C809,-595.5 803,-601.5 797,-601.5"/>
<polyline fill="none" stroke="black" points="797,-601.5 673,-601.5 "/>
<path fill="none" stroke="black" d="M673,-601.5C667,-601.5 661,-595.5 661,-589.5"/>
<polyline fill="none" stroke="black" points="661,-589.5 661,-475.5 "/>
<path fill="none" stroke="black" d="M661,-475.5C661,-469.5 667,-463.5 673,-463.5"/>
<text text-anchor="middle" x="735" y="-584.9" font-family="Times Roman,serif" font-size="14.00">SoftwareController</text>
<polyline fill="none" stroke="black" points="661,-575.5 809,-575.5 "/>
<text text-anchor="start" x="669" y="-558.9" font-family="Times Roman,serif" font-size="14.00">create</text>
<text text-anchor="start" x="669" y="-540.9" font-family="Times Roman,serif" font-size="14.00">last</text>
<text text-anchor="start" x="669" y="-522.9" font-family="Times Roman,serif" font-size="14.00">show</text>
<polyline fill="none" stroke="black" points="661,-513.5 809,-513.5 "/>
<polyline fill="none" stroke="black" points="661,-489.5 809,-489.5 "/>
<text text-anchor="start" x="669" y="-472.9" font-family="Times Roman,serif" font-size="14.00">_layout</text>
</g>
<!-- SongController -->
<g id="node10" class="node"><title>SongController</title>
<polyline fill="none" stroke="black" points="264.706,-475.006 360.706,-475.006 "/>
<path fill="none" stroke="black" d="M360.706,-475.006C366.706,-475.006 372.706,-481.006 372.706,-487.006"/>
<polyline fill="none" stroke="black" points="372.706,-487.006 372.706,-565.006 "/>
<path fill="none" stroke="black" d="M372.706,-565.006C372.706,-571.006 366.706,-577.006 360.706,-577.006"/>
<polyline fill="none" stroke="black" points="360.706,-577.006 264.706,-577.006 "/>
<path fill="none" stroke="black" d="M264.706,-577.006C258.706,-577.006 252.706,-571.006 252.706,-565.006"/>
<polyline fill="none" stroke="black" points="252.706,-565.006 252.706,-487.006 "/>
<path fill="none" stroke="black" d="M252.706,-487.006C252.706,-481.006 258.706,-475.006 264.706,-475.006"/>
<text text-anchor="middle" x="312.706" y="-560.406" font-family="Times Roman,serif" font-size="14.00">SongController</text>
<polyline fill="none" stroke="black" points="252.706,-551.006 372.706,-551.006 "/>
<text text-anchor="start" x="260.706" y="-534.406" font-family="Times Roman,serif" font-size="14.00">create</text>
<polyline fill="none" stroke="black" points="252.706,-525.006 372.706,-525.006 "/>
<polyline fill="none" stroke="black" points="252.706,-501.006 372.706,-501.006 "/>
<text text-anchor="start" x="260.706" y="-484.406" font-family="Times Roman,serif" font-size="14.00">_layout</text>
</g>
<!-- ApplicationController -->
<g id="node11" class="node"><title>ApplicationController</title>
<polyline fill="none" stroke="black" points="196.675,-260.088 410.675,-260.088 "/>
<path fill="none" stroke="black" d="M410.675,-260.088C416.675,-260.088 422.675,-266.088 422.675,-272.088"/>
<polyline fill="none" stroke="black" points="422.675,-272.088 422.675,-368.088 "/>
<path fill="none" stroke="black" d="M422.675,-368.088C422.675,-374.088 416.675,-380.088 410.675,-380.088"/>
<polyline fill="none" stroke="black" points="410.675,-380.088 196.675,-380.088 "/>
<path fill="none" stroke="black" d="M196.675,-380.088C190.675,-380.088 184.675,-374.088 184.675,-368.088"/>
<polyline fill="none" stroke="black" points="184.675,-368.088 184.675,-272.088 "/>
<path fill="none" stroke="black" d="M184.675,-272.088C184.675,-266.088 190.675,-260.088 196.675,-260.088"/>
<text text-anchor="middle" x="303.675" y="-363.488" font-family="Times Roman,serif" font-size="14.00">ApplicationController</text>
<polyline fill="none" stroke="black" points="184.675,-354.088 422.675,-354.088 "/>
<text text-anchor="start" x="192.675" y="-337.488" font-family="Times Roman,serif" font-size="14.00">_one_time_conditions_valid_74?</text>
<text text-anchor="start" x="192.675" y="-319.488" font-family="Times Roman,serif" font-size="14.00">_one_time_conditions_valid_76?</text>
<polyline fill="none" stroke="black" points="184.675,-310.088 422.675,-310.088 "/>
<polyline fill="none" stroke="black" points="184.675,-286.088 422.675,-286.088 "/>
<text text-anchor="start" x="192.675" y="-269.488" font-family="Times Roman,serif" font-size="14.00">_layout</text>
</g>
<!-- ApplicationController&#45;&gt;StaticPagesController -->
<g id="edge2" class="edge"><title>ApplicationController&#45;&gt;StaticPagesController</title>
<path fill="none" stroke="black" d="M196.167,-260.072C186.125,-254.465 176.053,-248.843 166.288,-243.391"/>
</g>
<!-- ApplicationController&#45;&gt;LogSoftwareController -->
<g id="edge4" class="edge"><title>ApplicationController&#45;&gt;LogSoftwareController</title>
<path fill="none" stroke="black" d="M422.777,-321.993C431.637,-322.135 440.471,-322.276 449.07,-322.414"/>
</g>
<!-- ApplicationController&#45;&gt;GraphsController -->
<g id="edge6" class="edge"><title>ApplicationController&#45;&gt;GraphsController</title>
<path fill="none" stroke="black" d="M293.096,-260.049C288.653,-234.838 283.496,-205.567 279.048,-180.323"/>
</g>
<!-- ApplicationController&#45;&gt;ActivitiesController -->
<g id="edge8" class="edge"><title>ApplicationController&#45;&gt;ActivitiesController</title>
<path fill="none" stroke="black" d="M230.258,-380.198C211.625,-395.454 191.605,-411.845 172.97,-427.103"/>
</g>
<!-- ApplicationController&#45;&gt;VideoController -->
<g id="edge10" class="edge"><title>ApplicationController&#45;&gt;VideoController</title>
<path fill="none" stroke="black" d="M371.318,-380.189C402.776,-408.141 439.925,-441.148 470.597,-468.401"/>
</g>
<!-- ApplicationController&#45;&gt;SongController -->
<g id="edge12" class="edge"><title>ApplicationController&#45;&gt;SongController</title>
<path fill="none" stroke="black" d="M306.311,-380.201C307.629,-410.235 309.205,-446.189 310.464,-474.878"/>
</g>
<!-- UserSessionsController -->
<g id="node12" class="node"><title>UserSessionsController</title>
<polyline fill="none" stroke="black" points="422.235,-34.5 605.235,-34.5 "/>
<path fill="none" stroke="black" d="M605.235,-34.5C611.235,-34.5 617.235,-40.5 617.235,-46.5"/>
<polyline fill="none" stroke="black" points="617.235,-46.5 617.235,-214.5 "/>
<path fill="none" stroke="black" d="M617.235,-214.5C617.235,-220.5 611.235,-226.5 605.235,-226.5"/>
<polyline fill="none" stroke="black" points="605.235,-226.5 422.235,-226.5 "/>
<path fill="none" stroke="black" d="M422.235,-226.5C416.235,-226.5 410.235,-220.5 410.235,-214.5"/>
<polyline fill="none" stroke="black" points="410.235,-214.5 410.235,-46.5 "/>
<path fill="none" stroke="black" d="M410.235,-46.5C410.235,-40.5 416.235,-34.5 422.235,-34.5"/>
<text text-anchor="middle" x="513.735" y="-209.9" font-family="Times Roman,serif" font-size="14.00">UserSessionsController</text>
<polyline fill="none" stroke="black" points="410.235,-200.5 617.235,-200.5 "/>
<text text-anchor="start" x="418.235" y="-183.9" font-family="Times Roman,serif" font-size="14.00">actionParamsToSkipLogging</text>
<text text-anchor="start" x="418.235" y="-165.9" font-family="Times Roman,serif" font-size="14.00">actionToSkipLogging</text>
<text text-anchor="start" x="418.235" y="-147.9" font-family="Times Roman,serif" font-size="14.00">create</text>
<text text-anchor="start" x="418.235" y="-129.9" font-family="Times Roman,serif" font-size="14.00">destroy</text>
<text text-anchor="start" x="418.235" y="-111.9" font-family="Times Roman,serif" font-size="14.00">index</text>
<text text-anchor="start" x="418.235" y="-93.9" font-family="Times Roman,serif" font-size="14.00">new</text>
<polyline fill="none" stroke="black" points="410.235,-84.5 617.235,-84.5 "/>
<polyline fill="none" stroke="black" points="410.235,-60.5 617.235,-60.5 "/>
<text text-anchor="start" x="418.235" y="-43.9" font-family="Times Roman,serif" font-size="14.00">_layout</text>
</g>
<!-- ApplicationController&#45;&gt;UserSessionsController -->
<g id="edge14" class="edge"><title>ApplicationController&#45;&gt;UserSessionsController</title>
<path fill="none" stroke="black" d="M370.428,-259.84C383.042,-248.456 396.509,-236.301 409.949,-224.17"/>
</g>
</g>
</svg>
