<?xml version="1.0" encoding="UTF-8" standalone="no"?>
<!DOCTYPE svg PUBLIC "-//W3C//DTD SVG 1.1//EN"
 "http://www.w3.org/Graphics/SVG/1.1/DTD/svg11.dtd">
<!-- Generated by graphviz version 2.26.3 (20100126.1600)
 -->
<!-- Title: models_diagram Pages: 1 -->
<svg width="2084pt" height="566pt"
 viewBox="0.00 0.00 2084.00 566.00" xmlns="http://www.w3.org/2000/svg" xmlns:xlink="http://www.w3.org/1999/xlink">
<g id="graph1" class="graph" transform="scale(1 1) rotate(0) translate(4 562)">
<title>models_diagram</title>
<polygon fill="white" stroke="white" points="-4,5 -4,-562 2081,-562 2081,5 -4,5"/>
<!-- _diagram_info -->
<g id="node1" class="node"><title>_diagram_info</title>
<text text-anchor="start" x="8" y="-489.8" font-family="Times Roman,serif" font-size="13.00">Models diagram</text>
<text text-anchor="start" x="8" y="-472.8" font-family="Times Roman,serif" font-size="13.00">Date: May 12 2014 &#45; 04:22</text>
<text text-anchor="start" x="8" y="-455.8" font-family="Times Roman,serif" font-size="13.00">Migration version: 20140308013942</text>
<text text-anchor="start" x="8" y="-438.8" font-family="Times Roman,serif" font-size="13.00">Generated by RailRoady 1.1.0</text>
<text text-anchor="start" x="8" y="-421.8" font-family="Times Roman,serif" font-size="13.00">http://railroady.prestonlee.com</text>
</g>
<!-- Song -->
<g id="node2" class="node"><title>Song</title>
<polyline fill="none" stroke="black" points="402.5,-181 503.5,-181 "/>
<path fill="none" stroke="black" d="M503.5,-181C509.5,-181 515.5,-187 515.5,-193"/>
<polyline fill="none" stroke="black" points="515.5,-193 515.5,-311 "/>
<path fill="none" stroke="black" d="M515.5,-311C515.5,-317 509.5,-323 503.5,-323"/>
<polyline fill="none" stroke="black" points="503.5,-323 402.5,-323 "/>
<path fill="none" stroke="black" d="M402.5,-323C396.5,-323 390.5,-317 390.5,-311"/>
<polyline fill="none" stroke="black" points="390.5,-311 390.5,-193 "/>
<path fill="none" stroke="black" d="M390.5,-193C390.5,-187 396.5,-181 402.5,-181"/>
<text text-anchor="middle" x="453" y="-306.4" font-family="Times Roman,serif" font-size="14.00">Song</text>
<polyline fill="none" stroke="black" points="390.5,-297 515.5,-297 "/>
<text text-anchor="start" x="398.5" y="-280.4" font-family="Times Roman,serif" font-size="14.00">id :integer</text>
<text text-anchor="start" x="398.5" y="-262.4" font-family="Times Roman,serif" font-size="14.00">fileName :string</text>
<text text-anchor="start" x="398.5" y="-244.4" font-family="Times Roman,serif" font-size="14.00">name :string</text>
<text text-anchor="start" x="398.5" y="-226.4" font-family="Times Roman,serif" font-size="14.00">artist :string</text>
<text text-anchor="start" x="398.5" y="-208.4" font-family="Times Roman,serif" font-size="14.00">genre :string</text>
<text text-anchor="start" x="398.5" y="-190.4" font-family="Times Roman,serif" font-size="14.00">length :integer</text>
</g>
<!-- LogSong -->
<g id="node19" class="node"><title>LogSong</title>
<polyline fill="none" stroke="black" points="390.5,-1 521.5,-1 "/>
<path fill="none" stroke="black" d="M521.5,-1C527.5,-1 533.5,-7 533.5,-13"/>
<polyline fill="none" stroke="black" points="533.5,-13 533.5,-131 "/>
<path fill="none" stroke="black" d="M533.5,-131C533.5,-137 527.5,-143 521.5,-143"/>
<polyline fill="none" stroke="black" points="521.5,-143 390.5,-143 "/>
<path fill="none" stroke="black" d="M390.5,-143C384.5,-143 378.5,-137 378.5,-131"/>
<polyline fill="none" stroke="black" points="378.5,-131 378.5,-13 "/>
<path fill="none" stroke="black" d="M378.5,-13C378.5,-7 384.5,-1 390.5,-1"/>
<text text-anchor="middle" x="456" y="-126.4" font-family="Times Roman,serif" font-size="14.00">LogSong</text>
<polyline fill="none" stroke="black" points="378.5,-117 533.5,-117 "/>
<text text-anchor="start" x="386.5" y="-100.4" font-family="Times Roman,serif" font-size="14.00">id :integer</text>
<text text-anchor="start" x="386.5" y="-82.4" font-family="Times Roman,serif" font-size="14.00">song_id :integer</text>
<text text-anchor="start" x="386.5" y="-64.4" font-family="Times Roman,serif" font-size="14.00">software_id :integer</text>
<text text-anchor="start" x="386.5" y="-46.4" font-family="Times Roman,serif" font-size="14.00">started :datetime</text>
<text text-anchor="start" x="386.5" y="-28.4" font-family="Times Roman,serif" font-size="14.00">ended :datetime</text>
<text text-anchor="start" x="386.5" y="-10.4" font-family="Times Roman,serif" font-size="14.00">user_id :integer</text>
</g>
<!-- Song&#45;&gt;LogSong -->
<g id="edge2" class="edge"><title>Song&#45;&gt;LogSong</title>
<path fill="none" stroke="#cece05" d="M454.322,-172.673C454.429,-166.237 454.538,-159.728 454.645,-153.279"/>
<ellipse fill="none" stroke="#cece05" cx="454.252" cy="-176.86" rx="4" ry="4"/>
<polygon fill="#cece05" stroke="#cece05" points="454.646,-153.212 459.312,-143.288 454.73,-148.213 454.813,-143.213 454.813,-143.213 454.813,-143.213 454.73,-148.213 450.314,-143.138 454.646,-153.212 454.646,-153.212"/>
</g>
<!-- Video -->
<g id="node3" class="node"><title>Video</title>
<polyline fill="none" stroke="black" points="542,-379 678,-379 "/>
<path fill="none" stroke="black" d="M678,-379C684,-379 690,-385 690,-391"/>
<polyline fill="none" stroke="black" points="690,-391 690,-527 "/>
<path fill="none" stroke="black" d="M690,-527C690,-533 684,-539 678,-539"/>
<polyline fill="none" stroke="black" points="678,-539 542,-539 "/>
<path fill="none" stroke="black" d="M542,-539C536,-539 530,-533 530,-527"/>
<polyline fill="none" stroke="black" points="530,-527 530,-391 "/>
<path fill="none" stroke="black" d="M530,-391C530,-385 536,-379 542,-379"/>
<text text-anchor="middle" x="610" y="-522.4" font-family="Times Roman,serif" font-size="14.00">Video</text>
<polyline fill="none" stroke="black" points="530,-513 690,-513 "/>
<text text-anchor="start" x="538" y="-496.4" font-family="Times Roman,serif" font-size="14.00">id :integer</text>
<text text-anchor="start" x="538" y="-478.4" font-family="Times Roman,serif" font-size="14.00">filename :string</text>
<text text-anchor="start" x="538" y="-460.4" font-family="Times Roman,serif" font-size="14.00">name :string</text>
<text text-anchor="start" x="538" y="-442.4" font-family="Times Roman,serif" font-size="14.00">software_id :integer</text>
<text text-anchor="start" x="538" y="-424.4" font-family="Times Roman,serif" font-size="14.00">timestamp :datetime</text>
<text text-anchor="start" x="538" y="-406.4" font-family="Times Roman,serif" font-size="14.00">times :integer</text>
<text text-anchor="start" x="538" y="-388.4" font-family="Times Roman,serif" font-size="14.00">length :integer</text>
</g>
<!-- LogMovie -->
<g id="node9" class="node"><title>LogMovie</title>
<polyline fill="none" stroke="black" points="544.5,-181 675.5,-181 "/>
<path fill="none" stroke="black" d="M675.5,-181C681.5,-181 687.5,-187 687.5,-193"/>
<polyline fill="none" stroke="black" points="687.5,-193 687.5,-311 "/>
<path fill="none" stroke="black" d="M687.5,-311C687.5,-317 681.5,-323 675.5,-323"/>
<polyline fill="none" stroke="black" points="675.5,-323 544.5,-323 "/>
<path fill="none" stroke="black" d="M544.5,-323C538.5,-323 532.5,-317 532.5,-311"/>
<polyline fill="none" stroke="black" points="532.5,-311 532.5,-193 "/>
<path fill="none" stroke="black" d="M532.5,-193C532.5,-187 538.5,-181 544.5,-181"/>
<text text-anchor="middle" x="610" y="-306.4" font-family="Times Roman,serif" font-size="14.00">LogMovie</text>
<polyline fill="none" stroke="black" points="532.5,-297 687.5,-297 "/>
<text text-anchor="start" x="540.5" y="-280.4" font-family="Times Roman,serif" font-size="14.00">id :integer</text>
<text text-anchor="start" x="540.5" y="-262.4" font-family="Times Roman,serif" font-size="14.00">movie_id :integer</text>
<text text-anchor="start" x="540.5" y="-244.4" font-family="Times Roman,serif" font-size="14.00">software_id :integer</text>
<text text-anchor="start" x="540.5" y="-226.4" font-family="Times Roman,serif" font-size="14.00">started :datetime</text>
<text text-anchor="start" x="540.5" y="-208.4" font-family="Times Roman,serif" font-size="14.00">ended :datetime</text>
<text text-anchor="start" x="540.5" y="-190.4" font-family="Times Roman,serif" font-size="14.00">user_id :integer</text>
</g>
<!-- Video&#45;&gt;LogMovie -->
<g id="edge4" class="edge"><title>Video&#45;&gt;LogMovie</title>
<path fill="none" stroke="#b0b1be" d="M610,-370.7C610,-358.268 610,-345.537 610,-333.246"/>
<ellipse fill="none" stroke="#b0b1be" cx="610" cy="-374.968" rx="4" ry="4"/>
<polygon fill="#b0b1be" stroke="#b0b1be" points="610,-333.041 614.5,-323.041 610,-328.041 610,-323.041 610,-323.041 610,-323.041 610,-328.041 605.5,-323.041 610,-333.041 610,-333.041"/>
</g>
<!-- Word -->
<g id="node4" class="node"><title>Word</title>
<polyline fill="none" stroke="black" points="149,-190 285,-190 "/>
<path fill="none" stroke="black" d="M285,-190C291,-190 297,-196 297,-202"/>
<polyline fill="none" stroke="black" points="297,-202 297,-302 "/>
<path fill="none" stroke="black" d="M297,-302C297,-308 291,-314 285,-314"/>
<polyline fill="none" stroke="black" points="285,-314 149,-314 "/>
<path fill="none" stroke="black" d="M149,-314C143,-314 137,-308 137,-302"/>
<polyline fill="none" stroke="black" points="137,-302 137,-202 "/>
<path fill="none" stroke="black" d="M137,-202C137,-196 143,-190 149,-190"/>
<text text-anchor="middle" x="217" y="-297.4" font-family="Times Roman,serif" font-size="14.00">Word</text>
<polyline fill="none" stroke="black" points="137,-288 297,-288 "/>
<text text-anchor="start" x="145" y="-271.4" font-family="Times Roman,serif" font-size="14.00">id :integer</text>
<text text-anchor="start" x="145" y="-253.4" font-family="Times Roman,serif" font-size="14.00">filePath :string</text>
<text text-anchor="start" x="145" y="-235.4" font-family="Times Roman,serif" font-size="14.00">name :string</text>
<text text-anchor="start" x="145" y="-217.4" font-family="Times Roman,serif" font-size="14.00">timestamp :datetime</text>
<text text-anchor="start" x="145" y="-199.4" font-family="Times Roman,serif" font-size="14.00">user_id :integer</text>
</g>
<!-- WordText -->
<g id="node7" class="node"><title>WordText</title>
<polyline fill="none" stroke="black" points="213,-19 349,-19 "/>
<path fill="none" stroke="black" d="M349,-19C355,-19 361,-25 361,-31"/>
<polyline fill="none" stroke="black" points="361,-31 361,-113 "/>
<path fill="none" stroke="black" d="M361,-113C361,-119 355,-125 349,-125"/>
<polyline fill="none" stroke="black" points="349,-125 213,-125 "/>
<path fill="none" stroke="black" d="M213,-125C207,-125 201,-119 201,-113"/>
<polyline fill="none" stroke="black" points="201,-113 201,-31 "/>
<path fill="none" stroke="black" d="M201,-31C201,-25 207,-19 213,-19"/>
<text text-anchor="middle" x="281" y="-108.4" font-family="Times Roman,serif" font-size="14.00">WordText</text>
<polyline fill="none" stroke="black" points="201,-99 361,-99 "/>
<text text-anchor="start" x="209" y="-82.4" font-family="Times Roman,serif" font-size="14.00">id :integer</text>
<text text-anchor="start" x="209" y="-64.4" font-family="Times Roman,serif" font-size="14.00">word_id :integer</text>
<text text-anchor="start" x="209" y="-46.4" font-family="Times Roman,serif" font-size="14.00">timestamp :datetime</text>
<text text-anchor="start" x="209" y="-28.4" font-family="Times Roman,serif" font-size="14.00">text :text</text>
</g>
<!-- Word&#45;&gt;WordText -->
<g id="edge8" class="edge"><title>Word&#45;&gt;WordText</title>
<path fill="none" stroke="#088bd5" d="M241.864,-182.071C247.376,-166.569 253.185,-150.229 258.592,-135.022"/>
<ellipse fill="none" stroke="#088bd5" cx="240.455" cy="-186.033" rx="4.00001" ry="4.00001"/>
<polygon fill="#088bd5" stroke="#088bd5" points="258.73,-134.634 266.32,-126.72 260.405,-129.923 262.08,-125.212 262.08,-125.212 262.08,-125.212 260.405,-129.923 257.84,-123.705 258.73,-134.634 258.73,-134.634"/>
</g>
<!-- WordHeading -->
<g id="node17" class="node"><title>WordHeading</title>
<polyline fill="none" stroke="black" points="35,-1 171,-1 "/>
<path fill="none" stroke="black" d="M171,-1C177,-1 183,-7 183,-13"/>
<polyline fill="none" stroke="black" points="183,-13 183,-131 "/>
<path fill="none" stroke="black" d="M183,-131C183,-137 177,-143 171,-143"/>
<polyline fill="none" stroke="black" points="171,-143 35,-143 "/>
<path fill="none" stroke="black" d="M35,-143C29,-143 23,-137 23,-131"/>
<polyline fill="none" stroke="black" points="23,-131 23,-13 "/>
<path fill="none" stroke="black" d="M23,-13C23,-7 29,-1 35,-1"/>
<text text-anchor="middle" x="103" y="-126.4" font-family="Times Roman,serif" font-size="14.00">WordHeading</text>
<polyline fill="none" stroke="black" points="23,-117 183,-117 "/>
<text text-anchor="start" x="31" y="-100.4" font-family="Times Roman,serif" font-size="14.00">id :integer</text>
<text text-anchor="start" x="31" y="-82.4" font-family="Times Roman,serif" font-size="14.00">word_id :integer</text>
<text text-anchor="start" x="31" y="-64.4" font-family="Times Roman,serif" font-size="14.00">timestamp :datetime</text>
<text text-anchor="start" x="31" y="-46.4" font-family="Times Roman,serif" font-size="14.00">rank :integer</text>
<text text-anchor="start" x="31" y="-28.4" font-family="Times Roman,serif" font-size="14.00">previous_id :integer</text>
<text text-anchor="start" x="31" y="-10.4" font-family="Times Roman,serif" font-size="14.00">text :text</text>
</g>
<!-- Word&#45;&gt;WordHeading -->
<g id="edge6" class="edge"><title>Word&#45;&gt;WordHeading</title>
<path fill="none" stroke="#017ac9" d="M173.322,-183.035C166.86,-172.831 160.155,-162.245 153.567,-151.842"/>
<ellipse fill="none" stroke="#017ac9" cx="175.468" cy="-186.423" rx="4.00002" ry="4.00002"/>
<polygon fill="#017ac9" stroke="#017ac9" points="153.418,-151.607 151.869,-140.751 150.743,-147.383 148.067,-143.159 148.067,-143.159 148.067,-143.159 150.743,-147.383 144.266,-145.567 153.418,-151.607 153.418,-151.607"/>
</g>
<!-- ClipboardCopy -->
<g id="node5" class="node"><title>ClipboardCopy</title>
<polyline fill="none" stroke="black" points="957,-181 1093,-181 "/>
<path fill="none" stroke="black" d="M1093,-181C1099,-181 1105,-187 1105,-193"/>
<polyline fill="none" stroke="black" points="1105,-193 1105,-311 "/>
<path fill="none" stroke="black" d="M1105,-311C1105,-317 1099,-323 1093,-323"/>
<polyline fill="none" stroke="black" points="1093,-323 957,-323 "/>
<path fill="none" stroke="black" d="M957,-323C951,-323 945,-317 945,-311"/>
<polyline fill="none" stroke="black" points="945,-311 945,-193 "/>
<path fill="none" stroke="black" d="M945,-193C945,-187 951,-181 957,-181"/>
<text text-anchor="middle" x="1025" y="-306.4" font-family="Times Roman,serif" font-size="14.00">ClipboardCopy</text>
<polyline fill="none" stroke="black" points="945,-297 1105,-297 "/>
<text text-anchor="start" x="953" y="-280.4" font-family="Times Roman,serif" font-size="14.00">id :integer</text>
<text text-anchor="start" x="953" y="-262.4" font-family="Times Roman,serif" font-size="14.00">text :text</text>
<text text-anchor="start" x="953" y="-244.4" font-family="Times Roman,serif" font-size="14.00">user_id :integer</text>
<text text-anchor="start" x="953" y="-226.4" font-family="Times Roman,serif" font-size="14.00">software_id :integer</text>
<text text-anchor="start" x="953" y="-208.4" font-family="Times Roman,serif" font-size="14.00">type :string</text>
<text text-anchor="start" x="953" y="-190.4" font-family="Times Roman,serif" font-size="14.00">created_at :datetime</text>
</g>
<!-- StemNormalizer -->
<g id="node6" class="node"><title>StemNormalizer</title>
<polygon fill="none" stroke="black" points="1212,-433 1212,-485 1340,-485 1340,-433 1212,-433"/>
<text text-anchor="middle" x="1276" y="-468.4" font-family="Times Roman,serif" font-size="14.00">StemNormalizer</text>
<polyline fill="none" stroke="black" points="1212,-459 1340,-459 "/>
<text text-anchor="middle" x="1276" y="-442.4" font-family="Times Roman,serif" font-size="14.00"> </text>
</g>
<!-- Clipboard -->
<g id="node8" class="node"><title>Clipboard</title>
<polyline fill="none" stroke="black" points="1046,-388 1182,-388 "/>
<path fill="none" stroke="black" d="M1182,-388C1188,-388 1194,-394 1194,-400"/>
<polyline fill="none" stroke="black" points="1194,-400 1194,-518 "/>
<path fill="none" stroke="black" d="M1194,-518C1194,-524 1188,-530 1182,-530"/>
<polyline fill="none" stroke="black" points="1182,-530 1046,-530 "/>
<path fill="none" stroke="black" d="M1046,-530C1040,-530 1034,-524 1034,-518"/>
<polyline fill="none" stroke="black" points="1034,-518 1034,-400 "/>
<path fill="none" stroke="black" d="M1034,-400C1034,-394 1040,-388 1046,-388"/>
<text text-anchor="middle" x="1114" y="-513.4" font-family="Times Roman,serif" font-size="14.00">Clipboard</text>
<polyline fill="none" stroke="black" points="1034,-504 1194,-504 "/>
<text text-anchor="start" x="1042" y="-487.4" font-family="Times Roman,serif" font-size="14.00">id :integer</text>
<text text-anchor="start" x="1042" y="-469.4" font-family="Times Roman,serif" font-size="14.00">text :text</text>
<text text-anchor="start" x="1042" y="-451.4" font-family="Times Roman,serif" font-size="14.00">user_id :integer</text>
<text text-anchor="start" x="1042" y="-433.4" font-family="Times Roman,serif" font-size="14.00">software_id :integer</text>
<text text-anchor="start" x="1042" y="-415.4" font-family="Times Roman,serif" font-size="14.00">type :string</text>
<text text-anchor="start" x="1042" y="-397.4" font-family="Times Roman,serif" font-size="14.00">created_at :datetime</text>
</g>
<!-- Clipboard&#45;&gt;ClipboardCopy -->
<g id="edge10" class="edge"><title>Clipboard&#45;&gt;ClipboardCopy</title>
<path fill="none" stroke="black" d="M1083.37,-387.762C1074.37,-366.829 1064.53,-343.938 1055.53,-323.018"/>
</g>
<!-- ClipboardPaste -->
<g id="node18" class="node"><title>ClipboardPaste</title>
<polyline fill="none" stroke="black" points="1135,-181 1271,-181 "/>
<path fill="none" stroke="black" d="M1271,-181C1277,-181 1283,-187 1283,-193"/>
<polyline fill="none" stroke="black" points="1283,-193 1283,-311 "/>
<path fill="none" stroke="black" d="M1283,-311C1283,-317 1277,-323 1271,-323"/>
<polyline fill="none" stroke="black" points="1271,-323 1135,-323 "/>
<path fill="none" stroke="black" d="M1135,-323C1129,-323 1123,-317 1123,-311"/>
<polyline fill="none" stroke="black" points="1123,-311 1123,-193 "/>
<path fill="none" stroke="black" d="M1123,-193C1123,-187 1129,-181 1135,-181"/>
<text text-anchor="middle" x="1203" y="-306.4" font-family="Times Roman,serif" font-size="14.00">ClipboardPaste</text>
<polyline fill="none" stroke="black" points="1123,-297 1283,-297 "/>
<text text-anchor="start" x="1131" y="-280.4" font-family="Times Roman,serif" font-size="14.00">id :integer</text>
<text text-anchor="start" x="1131" y="-262.4" font-family="Times Roman,serif" font-size="14.00">text :text</text>
<text text-anchor="start" x="1131" y="-244.4" font-family="Times Roman,serif" font-size="14.00">user_id :integer</text>
<text text-anchor="start" x="1131" y="-226.4" font-family="Times Roman,serif" font-size="14.00">software_id :integer</text>
<text text-anchor="start" x="1131" y="-208.4" font-family="Times Roman,serif" font-size="14.00">type :string</text>
<text text-anchor="start" x="1131" y="-190.4" font-family="Times Roman,serif" font-size="14.00">created_at :datetime</text>
</g>
<!-- Clipboard&#45;&gt;ClipboardPaste -->
<g id="edge30" class="edge"><title>Clipboard&#45;&gt;ClipboardPaste</title>
<path fill="none" stroke="black" d="M1144.63,-387.762C1153.63,-366.829 1163.47,-343.938 1172.47,-323.018"/>
</g>
<!-- StatReader -->
<g id="node10" class="node"><title>StatReader</title>
<polygon fill="none" stroke="black" points="1358,-433 1358,-485 1452,-485 1452,-433 1358,-433"/>
<text text-anchor="middle" x="1405" y="-468.4" font-family="Times Roman,serif" font-size="14.00">StatReader</text>
<polyline fill="none" stroke="black" points="1358,-459 1452,-459 "/>
<text text-anchor="middle" x="1405" y="-442.4" font-family="Times Roman,serif" font-size="14.00"> </text>
</g>
<!-- UserSession -->
<g id="node11" class="node"><title>UserSession</title>
<polygon fill="none" stroke="black" points="1550,-226 1550,-278 1650,-278 1650,-226 1550,-226"/>
<text text-anchor="middle" x="1600" y="-261.4" font-family="Times Roman,serif" font-size="14.00">UserSession</text>
<polyline fill="none" stroke="black" points="1550,-252 1650,-252 "/>
<text text-anchor="middle" x="1600" y="-235.4" font-family="Times Roman,serif" font-size="14.00"> </text>
</g>
<!-- Software -->
<g id="node12" class="node"><title>Software</title>
<polyline fill="none" stroke="black" points="769,-397 863,-397 "/>
<path fill="none" stroke="black" d="M863,-397C869,-397 875,-403 875,-409"/>
<polyline fill="none" stroke="black" points="875,-409 875,-509 "/>
<path fill="none" stroke="black" d="M875,-509C875,-515 869,-521 863,-521"/>
<polyline fill="none" stroke="black" points="863,-521 769,-521 "/>
<path fill="none" stroke="black" d="M769,-521C763,-521 757,-515 757,-509"/>
<polyline fill="none" stroke="black" points="757,-509 757,-409 "/>
<path fill="none" stroke="black" d="M757,-409C757,-403 763,-397 769,-397"/>
<text text-anchor="middle" x="816" y="-504.4" font-family="Times Roman,serif" font-size="14.00">Software</text>
<polyline fill="none" stroke="black" points="757,-495 875,-495 "/>
<text text-anchor="start" x="765" y="-478.4" font-family="Times Roman,serif" font-size="14.00">id :integer</text>
<text text-anchor="start" x="765" y="-460.4" font-family="Times Roman,serif" font-size="14.00">name :string</text>
<text text-anchor="start" x="765" y="-442.4" font-family="Times Roman,serif" font-size="14.00">process :string</text>
<text text-anchor="start" x="765" y="-424.4" font-family="Times Roman,serif" font-size="14.00">filepath :string</text>
<text text-anchor="start" x="765" y="-406.4" font-family="Times Roman,serif" font-size="14.00">ignore :integer</text>
</g>
<!-- LogSoftware -->
<g id="node16" class="node"><title>LogSoftware</title>
<polyline fill="none" stroke="black" points="717,-181 915,-181 "/>
<path fill="none" stroke="black" d="M915,-181C921,-181 927,-187 927,-193"/>
<polyline fill="none" stroke="black" points="927,-193 927,-311 "/>
<path fill="none" stroke="black" d="M927,-311C927,-317 921,-323 915,-323"/>
<polyline fill="none" stroke="black" points="915,-323 717,-323 "/>
<path fill="none" stroke="black" d="M717,-323C711,-323 705,-317 705,-311"/>
<polyline fill="none" stroke="black" points="705,-311 705,-193 "/>
<path fill="none" stroke="black" d="M705,-193C705,-187 711,-181 717,-181"/>
<text text-anchor="middle" x="816" y="-306.4" font-family="Times Roman,serif" font-size="14.00">LogSoftware</text>
<polyline fill="none" stroke="black" points="705,-297 927,-297 "/>
<text text-anchor="start" x="713" y="-280.4" font-family="Times Roman,serif" font-size="14.00">id :integer</text>
<text text-anchor="start" x="713" y="-262.4" font-family="Times Roman,serif" font-size="14.00">software_id :integer</text>
<text text-anchor="start" x="713" y="-244.4" font-family="Times Roman,serif" font-size="14.00">timestamp :datetime</text>
<text text-anchor="start" x="713" y="-226.4" font-family="Times Roman,serif" font-size="14.00">softwareWindowName :string</text>
<text text-anchor="start" x="713" y="-208.4" font-family="Times Roman,serif" font-size="14.00">user_id :integer</text>
<text text-anchor="start" x="713" y="-190.4" font-family="Times Roman,serif" font-size="14.00">length :integer</text>
</g>
<!-- Software&#45;&gt;LogSoftware -->
<g id="edge14" class="edge"><title>Software&#45;&gt;LogSoftware</title>
<path fill="none" stroke="#c3ba20" d="M816,-388.882C816,-371 816,-351.63 816,-333.243"/>
<ellipse fill="none" stroke="#c3ba20" cx="816" cy="-392.893" rx="4" ry="4"/>
<polygon fill="#c3ba20" stroke="#c3ba20" points="816,-333.145 820.5,-323.145 816,-328.145 816,-323.145 816,-323.145 816,-323.145 816,-328.145 811.5,-323.145 816,-333.145 816,-333.145"/>
</g>
<!-- Normalizers -->
<g id="node13" class="node"><title>Normalizers</title>
<polygon fill="none" stroke="black" points="1747.5,-433 1747.5,-485 1846.5,-485 1846.5,-433 1747.5,-433"/>
<text text-anchor="middle" x="1797" y="-468.4" font-family="Times Roman,serif" font-size="14.00">Normalizers</text>
<polyline fill="none" stroke="black" points="1747.5,-459 1846.5,-459 "/>
<text text-anchor="middle" x="1797" y="-442.4" font-family="Times Roman,serif" font-size="14.00"> </text>
</g>
<!-- User -->
<g id="node14" class="node"><title>User</title>
<polyline fill="none" stroke="black" points="280,-361 446,-361 "/>
<path fill="none" stroke="black" d="M446,-361C452,-361 458,-367 458,-373"/>
<polyline fill="none" stroke="black" points="458,-373 458,-545 "/>
<path fill="none" stroke="black" d="M458,-545C458,-551 452,-557 446,-557"/>
<polyline fill="none" stroke="black" points="446,-557 280,-557 "/>
<path fill="none" stroke="black" d="M280,-557C274,-557 268,-551 268,-545"/>
<polyline fill="none" stroke="black" points="268,-545 268,-373 "/>
<path fill="none" stroke="black" d="M268,-373C268,-367 274,-361 280,-361"/>
<text text-anchor="middle" x="363" y="-540.4" font-family="Times Roman,serif" font-size="14.00">User</text>
<polyline fill="none" stroke="black" points="268,-531 458,-531 "/>
<text text-anchor="start" x="276" y="-514.4" font-family="Times Roman,serif" font-size="14.00">id :integer</text>
<text text-anchor="start" x="276" y="-496.4" font-family="Times Roman,serif" font-size="14.00">name :string</text>
<text text-anchor="start" x="276" y="-478.4" font-family="Times Roman,serif" font-size="14.00">email :string</text>
<text text-anchor="start" x="276" y="-460.4" font-family="Times Roman,serif" font-size="14.00">pass :string</text>
<text text-anchor="start" x="276" y="-442.4" font-family="Times Roman,serif" font-size="14.00">token :text</text>
<text text-anchor="start" x="276" y="-424.4" font-family="Times Roman,serif" font-size="14.00">annota_id :integer</text>
<text text-anchor="start" x="276" y="-406.4" font-family="Times Roman,serif" font-size="14.00">pc_uniq :string</text>
<text text-anchor="start" x="276" y="-388.4" font-family="Times Roman,serif" font-size="14.00">persistence_token :string</text>
<text text-anchor="start" x="276" y="-370.4" font-family="Times Roman,serif" font-size="14.00">ip :string</text>
</g>
<!-- User&#45;&gt;Song -->
<g id="edge20" class="edge"><title>User&#45;&gt;Song</title>
<path fill="none" stroke="#f6068c" d="M409.659,-351.685C412.483,-345.189 415.298,-338.714 418.06,-332.362"/>
<polygon fill="#f6068c" stroke="#f6068c" points="409.615,-351.785 401.501,-359.161 407.622,-356.37 405.628,-360.956 405.628,-360.956 405.628,-360.956 407.622,-356.37 409.755,-362.75 409.615,-351.785 409.615,-351.785"/>
<polygon fill="#f6068c" stroke="#f6068c" points="418.076,-332.325 426.19,-324.948 420.07,-327.739 422.064,-323.154 422.064,-323.154 422.064,-323.154 420.07,-327.739 417.937,-321.36 418.076,-332.325 418.076,-332.325"/>
</g>
<!-- User&#45;&gt;Word -->
<g id="edge24" class="edge"><title>User&#45;&gt;Word</title>
<path fill="none" stroke="#b5b26c" d="M289.086,-354.205C281.431,-343.35 273.788,-332.515 266.496,-322.176"/>
<ellipse fill="none" stroke="#b5b26c" cx="291.543" cy="-357.687" rx="4.00002" ry="4.00002"/>
<polygon fill="#b5b26c" stroke="#b5b26c" points="266.494,-322.172 264.407,-311.407 263.612,-318.086 260.73,-314.001 260.73,-314.001 260.73,-314.001 263.612,-318.086 257.053,-316.594 266.494,-322.172 266.494,-322.172"/>
</g>
<!-- User&#45;&gt;WordText -->
<g id="edge26" class="edge"><title>User&#45;&gt;WordText</title>
<path fill="none" stroke="#2113c3" d="M341.589,-350.872C331.164,-299.103 318.259,-236.272 306,-180 302.838,-165.485 299.31,-149.905 295.924,-135.221"/>
<polygon fill="#2113c3" stroke="#2113c3" points="341.601,-350.935 339.161,-361.625 342.587,-355.836 343.572,-360.738 343.572,-360.738 343.572,-360.738 342.587,-355.836 347.984,-359.851 341.601,-350.935 341.601,-350.935"/>
<polygon fill="#2113c3" stroke="#2113c3" points="295.865,-134.965 297.993,-124.208 294.737,-130.094 293.609,-125.223 293.609,-125.223 293.609,-125.223 294.737,-130.094 289.225,-126.238 295.865,-134.965 295.865,-134.965"/>
</g>
<!-- User&#45;&gt;LogMovie -->
<g id="edge22" class="edge"><title>User&#45;&gt;LogMovie</title>
<path fill="none" stroke="#7b5f5e" d="M464.482,-373.952C484.326,-357.322 504.955,-340.034 524.227,-323.883"/>
<ellipse fill="none" stroke="#7b5f5e" cx="461.209" cy="-376.695" rx="4.00002" ry="4.00002"/>
<polygon fill="#7b5f5e" stroke="#7b5f5e" points="524.446,-323.7 535,-320.725 528.278,-320.488 532.11,-317.276 532.11,-317.276 532.11,-317.276 528.278,-320.488 529.219,-313.827 524.446,-323.7 524.446,-323.7"/>
</g>
<!-- User&#45;&gt;LogSoftware -->
<g id="edge16" class="edge"><title>User&#45;&gt;LogSoftware</title>
<path fill="none" stroke="#79282a" d="M465.387,-387.594C483.354,-377.201 502.3,-367.497 521,-360 591.824,-331.604 619.81,-351.167 695.392,-323.922"/>
<ellipse fill="none" stroke="#79282a" cx="461.735" cy="-389.74" rx="4.00002" ry="4.00002"/>
<polygon fill="#79282a" stroke="#79282a" points="695.493,-323.885 706.437,-324.573 700.172,-322.123 704.851,-320.361 704.851,-320.361 704.851,-320.361 700.172,-322.123 703.266,-316.15 695.493,-323.885 695.493,-323.885"/>
</g>
<!-- User&#45;&gt;WordHeading -->
<g id="edge28" class="edge"><title>User&#45;&gt;WordHeading</title>
<path fill="none" stroke="#5e4197" d="M259.275,-360.156C259.183,-360.104 259.092,-360.052 259,-360 206.436,-330.288 166.933,-370.153 128,-324 88.7035,-277.416 84.6342,-207.392 89.1638,-152.972"/>
<polygon fill="#5e4197" stroke="#5e4197" points="259.162,-360.088 265.398,-369.107 263.443,-362.671 267.724,-365.255 267.724,-365.255 267.724,-365.255 263.443,-362.671 270.049,-361.402 259.162,-360.088 259.162,-360.088"/>
<polygon fill="#5e4197" stroke="#5e4197" points="89.1651,-152.957 94.5833,-143.423 89.6341,-147.979 90.1031,-143.001 90.1031,-143.001 90.1031,-143.001 89.6341,-147.979 85.6229,-142.579 89.1651,-152.957 89.1651,-152.957"/>
</g>
<!-- User&#45;&gt;LogSong -->
<g id="edge18" class="edge"><title>User&#45;&gt;LogSong</title>
<path fill="none" stroke="#d16807" d="M357.203,-352.832C357.525,-299.612 362.906,-234.963 382,-180 385.273,-170.58 389.597,-161.216 394.517,-152.167"/>
<ellipse fill="none" stroke="#d16807" cx="357.198" cy="-356.934" rx="4" ry="4"/>
<polygon fill="#d16807" stroke="#d16807" points="394.66,-151.916 403.526,-145.462 397.139,-147.574 399.618,-143.231 399.618,-143.231 399.618,-143.231 397.139,-147.574 395.71,-141 394.66,-151.916 394.66,-151.916"/>
</g>
<!-- TermNormalizer -->
<g id="node15" class="node"><title>TermNormalizer</title>
<polygon fill="none" stroke="black" points="1863.5,-433 1863.5,-485 1988.5,-485 1988.5,-433 1863.5,-433"/>
<text text-anchor="middle" x="1926" y="-468.4" font-family="Times Roman,serif" font-size="14.00">TermNormalizer</text>
<polyline fill="none" stroke="black" points="1863.5,-459 1988.5,-459 "/>
<text text-anchor="middle" x="1926" y="-442.4" font-family="Times Roman,serif" font-size="14.00"> </text>
</g>
<!-- Skriptik -->
<g id="node20" class="node"><title>Skriptik</title>
<polygon fill="none" stroke="black" points="2006,-433 2006,-485 2076,-485 2076,-433 2006,-433"/>
<text text-anchor="middle" x="2041" y="-468.4" font-family="Times Roman,serif" font-size="14.00">Skriptik</text>
<polyline fill="none" stroke="black" points="2006,-459 2076,-459 "/>
<text text-anchor="middle" x="2041" y="-442.4" font-family="Times Roman,serif" font-size="14.00"> </text>
</g>
<!-- Authlogic::Session::Base -->
<g id="node26" class="node"><title>Authlogic::Session::Base</title>
<ellipse fill="none" stroke="black" cx="1600" cy="-459" rx="130.108" ry="18.3848"/>
<text text-anchor="middle" x="1600" y="-455.4" font-family="Times Roman,serif" font-size="14.00">Authlogic::Session::Base</text>
</g>
<!-- Authlogic::Session::Base&#45;&gt;UserSession -->
<g id="edge12" class="edge"><title>Authlogic::Session::Base&#45;&gt;UserSession</title>
<path fill="none" stroke="black" d="M1600,-440.265C1600,-403.243 1600,-320.635 1600,-278.227"/>
</g>
</g>
</svg>
