<?xml version="1.0" encoding="UTF-8" standalone="no"?>
<!DOCTYPE svg PUBLIC "-//W3C//DTD SVG 1.1//EN"
 "http://www.w3.org/Graphics/SVG/1.1/DTD/svg11.dtd">
<!-- Generated by graphviz version 2.26.3 (20100126.1600)
 -->
<!-- Title: models_diagram Pages: 1 -->
<svg width="1837pt" height="250pt"
 viewBox="0.00 0.00 1837.00 250.00" xmlns="http://www.w3.org/2000/svg" xmlns:xlink="http://www.w3.org/1999/xlink">
<g id="graph1" class="graph" transform="scale(1 1) rotate(0) translate(4 246)">
<title>models_diagram</title>
<polygon fill="white" stroke="white" points="-4,5 -4,-246 1834,-246 1834,5 -4,5"/>
<!-- _diagram_info -->
<g id="node1" class="node"><title>_diagram_info</title>
<text text-anchor="start" x="8" y="-225.8" font-family="Times Roman,serif" font-size="13.00">Models diagram</text>
<text text-anchor="start" x="8" y="-208.8" font-family="Times Roman,serif" font-size="13.00">Date: May 12 2014 &#45; 04:22</text>
<text text-anchor="start" x="8" y="-191.8" font-family="Times Roman,serif" font-size="13.00">Migration version: 20140308013942</text>
<text text-anchor="start" x="8" y="-174.8" font-family="Times Roman,serif" font-size="13.00">Generated by RailRoady 1.1.0</text>
<text text-anchor="start" x="8" y="-157.8" font-family="Times Roman,serif" font-size="13.00">http://railroady.prestonlee.com</text>
</g>
<!-- Song -->
<g id="node2" class="node"><title>Song</title>
<ellipse fill="none" stroke="black" cx="366" cy="-93" rx="36.0624" ry="18.3848"/>
<text text-anchor="middle" x="366" y="-89.4" font-family="Times Roman,serif" font-size="14.00">Song</text>
</g>
<!-- LogSong -->
<g id="node19" class="node"><title>LogSong</title>
<ellipse fill="none" stroke="black" cx="380" cy="-19" rx="53.2379" ry="18.3848"/>
<text text-anchor="middle" x="380" y="-15.4" font-family="Times Roman,serif" font-size="14.00">LogSong</text>
</g>
<!-- Song&#45;&gt;LogSong -->
<g id="edge2" class="edge"><title>Song&#45;&gt;LogSong</title>
<path fill="none" stroke="#bc5eb9" d="M371.05,-66.309C372.2,-60.2286 373.427,-53.7446 374.591,-47.5886"/>
<ellipse fill="none" stroke="#bc5eb9" cx="370.276" cy="-70.3964" rx="4.00001" ry="4.00001"/>
<polygon fill="#bc5eb9" stroke="#bc5eb9" points="374.609,-47.4931 380.89,-38.5039 375.539,-42.5802 376.468,-37.6674 376.468,-37.6674 376.468,-37.6674 375.539,-42.5802 372.047,-36.8308 374.609,-47.4931 374.609,-47.4931"/>
</g>
<!-- Video -->
<g id="node3" class="node"><title>Video</title>
<ellipse fill="none" stroke="black" cx="478" cy="-195" rx="38.1838" ry="18.3848"/>
<text text-anchor="middle" x="478" y="-191.4" font-family="Times Roman,serif" font-size="14.00">Video</text>
</g>
<!-- LogMovie -->
<g id="node9" class="node"><title>LogMovie</title>
<ellipse fill="none" stroke="black" cx="478" cy="-93" rx="57.9828" ry="18.3848"/>
<text text-anchor="middle" x="478" y="-89.4" font-family="Times Roman,serif" font-size="14.00">LogMovie</text>
</g>
<!-- Video&#45;&gt;LogMovie -->
<g id="edge4" class="edge"><title>Video&#45;&gt;LogMovie</title>
<path fill="none" stroke="#2c78f7" d="M478,-168.015C478,-153.835 478,-136.445 478,-121.98"/>
<ellipse fill="none" stroke="#2c78f7" cx="478" cy="-172.292" rx="4" ry="4"/>
<polygon fill="#2c78f7" stroke="#2c78f7" points="478,-121.59 482.5,-111.59 478,-116.59 478,-111.59 478,-111.59 478,-111.59 478,-116.59 473.5,-111.59 478,-121.59 478,-121.59"/>
</g>
<!-- Word -->
<g id="node4" class="node"><title>Word</title>
<ellipse fill="none" stroke="black" cx="199" cy="-93" rx="36.977" ry="18.3848"/>
<text text-anchor="middle" x="199" y="-89.4" font-family="Times Roman,serif" font-size="14.00">Word</text>
</g>
<!-- WordText -->
<g id="node7" class="node"><title>WordText</title>
<ellipse fill="none" stroke="black" cx="251" cy="-19" rx="57.9828" ry="18.3848"/>
<text text-anchor="middle" x="251" y="-15.4" font-family="Times Roman,serif" font-size="14.00">WordText</text>
</g>
<!-- Word&#45;&gt;WordText -->
<g id="edge8" class="edge"><title>Word&#45;&gt;WordText</title>
<path fill="none" stroke="#16adad" d="M216.114,-68.6452C221.293,-61.2752 227.007,-53.1444 232.285,-45.6335"/>
<ellipse fill="none" stroke="#16adad" cx="213.623" cy="-72.1903" rx="4.00002" ry="4.00002"/>
<polygon fill="#16adad" stroke="#16adad" points="232.473,-45.3658 241.904,-39.7711 235.347,-41.2748 238.222,-37.1839 238.222,-37.1839 238.222,-37.1839 235.347,-41.2748 234.54,-34.5966 232.473,-45.3658 232.473,-45.3658"/>
</g>
<!-- WordHeading -->
<g id="node17" class="node"><title>WordHeading</title>
<ellipse fill="none" stroke="black" cx="98" cy="-19" rx="77.0746" ry="18.3848"/>
<text text-anchor="middle" x="98" y="-15.4" font-family="Times Roman,serif" font-size="14.00">WordHeading</text>
</g>
<!-- Word&#45;&gt;WordHeading -->
<g id="edge6" class="edge"><title>Word&#45;&gt;WordHeading</title>
<path fill="none" stroke="#44a9c6" d="M171.273,-72.6851C158.633,-63.4244 143.586,-52.3997 130.425,-42.7572"/>
<ellipse fill="none" stroke="#44a9c6" cx="174.846" cy="-75.3031" rx="4.00002" ry="4.00002"/>
<polygon fill="#44a9c6" stroke="#44a9c6" points="130.16,-42.5631 124.753,-33.0229 126.127,-39.608 122.094,-36.6528 122.094,-36.6528 122.094,-36.6528 126.127,-39.608 119.434,-40.2828 130.16,-42.5631 130.16,-42.5631"/>
</g>
<!-- ClipboardCopy -->
<g id="node5" class="node"><title>ClipboardCopy</title>
<ellipse fill="none" stroke="black" cx="799" cy="-93" rx="80.8184" ry="18.3848"/>
<text text-anchor="middle" x="799" y="-89.4" font-family="Times Roman,serif" font-size="14.00">ClipboardCopy</text>
</g>
<!-- StemNormalizer -->
<g id="node6" class="node"><title>StemNormalizer</title>
<polygon fill="none" stroke="black" points="1093,-213 965,-213 965,-177 1093,-177 1093,-213"/>
<text text-anchor="middle" x="1029" y="-191.4" font-family="Times Roman,serif" font-size="14.00">StemNormalizer</text>
</g>
<!-- Clipboard -->
<g id="node8" class="node"><title>Clipboard</title>
<ellipse fill="none" stroke="black" cx="890" cy="-195" rx="56.7776" ry="18.3848"/>
<text text-anchor="middle" x="890" y="-191.4" font-family="Times Roman,serif" font-size="14.00">Clipboard</text>
</g>
<!-- Clipboard&#45;&gt;ClipboardCopy -->
<g id="edge10" class="edge"><title>Clipboard&#45;&gt;ClipboardCopy</title>
<path fill="none" stroke="black" d="M873.731,-176.764C857.27,-158.313 831.956,-129.939 815.435,-111.422"/>
</g>
<!-- ClipboardPaste -->
<g id="node18" class="node"><title>ClipboardPaste</title>
<ellipse fill="none" stroke="black" cx="981" cy="-93" rx="82.939" ry="18.3848"/>
<text text-anchor="middle" x="981" y="-89.4" font-family="Times Roman,serif" font-size="14.00">ClipboardPaste</text>
</g>
<!-- Clipboard&#45;&gt;ClipboardPaste -->
<g id="edge30" class="edge"><title>Clipboard&#45;&gt;ClipboardPaste</title>
<path fill="none" stroke="black" d="M906.269,-176.764C922.73,-158.313 948.044,-129.939 964.565,-111.422"/>
</g>
<!-- StatReader -->
<g id="node10" class="node"><title>StatReader</title>
<polygon fill="none" stroke="black" points="1205,-213 1111,-213 1111,-177 1205,-177 1205,-213"/>
<text text-anchor="middle" x="1158" y="-191.4" font-family="Times Roman,serif" font-size="14.00">StatReader</text>
</g>
<!-- UserSession -->
<g id="node11" class="node"><title>UserSession</title>
<polygon fill="none" stroke="black" points="1403,-111 1303,-111 1303,-75 1403,-75 1403,-111"/>
<text text-anchor="middle" x="1353" y="-89.4" font-family="Times Roman,serif" font-size="14.00">UserSession</text>
</g>
<!-- Software -->
<g id="node12" class="node"><title>Software</title>
<ellipse fill="none" stroke="black" cx="627" cy="-195" rx="55.8614" ry="18.3848"/>
<text text-anchor="middle" x="627" y="-191.4" font-family="Times Roman,serif" font-size="14.00">Software</text>
</g>
<!-- LogSoftware -->
<g id="node16" class="node"><title>LogSoftware</title>
<ellipse fill="none" stroke="black" cx="627" cy="-93" rx="72.832" ry="18.3848"/>
<text text-anchor="middle" x="627" y="-89.4" font-family="Times Roman,serif" font-size="14.00">LogSoftware</text>
</g>
<!-- Software&#45;&gt;LogSoftware -->
<g id="edge14" class="edge"><title>Software&#45;&gt;LogSoftware</title>
<path fill="none" stroke="#604d1b" d="M627,-168.015C627,-153.835 627,-136.445 627,-121.98"/>
<ellipse fill="none" stroke="#604d1b" cx="627" cy="-172.292" rx="4" ry="4"/>
<polygon fill="#604d1b" stroke="#604d1b" points="627,-121.59 631.5,-111.59 627,-116.59 627,-111.59 627,-111.59 627,-111.59 627,-116.59 622.5,-111.59 627,-121.59 627,-121.59"/>
</g>
<!-- Normalizers -->
<g id="node13" class="node"><title>Normalizers</title>
<polygon fill="none" stroke="black" points="1599,-213 1501,-213 1501,-177 1599,-177 1599,-213"/>
<text text-anchor="middle" x="1550" y="-191.4" font-family="Times Roman,serif" font-size="14.00">Normalizers</text>
</g>
<!-- User -->
<g id="node14" class="node"><title>User</title>
<ellipse fill="none" stroke="black" cx="302" cy="-195" rx="33.9411" ry="18.3848"/>
<text text-anchor="middle" x="302" y="-191.4" font-family="Times Roman,serif" font-size="14.00">User</text>
</g>
<!-- User&#45;&gt;Song -->
<g id="edge20" class="edge"><title>User&#45;&gt;Song</title>
<path fill="none" stroke="#672937" d="M318.738,-168.324C328.141,-153.338 339.84,-134.692 349.246,-119.702"/>
<polygon fill="#672937" stroke="#672937" points="318.463,-168.762 309.336,-174.841 315.805,-172.998 313.148,-177.233 313.148,-177.233 313.148,-177.233 315.805,-172.998 316.96,-179.625 318.463,-168.762 318.463,-168.762"/>
<polygon fill="#672937" stroke="#672937" points="349.45,-119.376 358.577,-113.297 352.108,-115.141 354.765,-110.906 354.765,-110.906 354.765,-110.906 352.108,-115.141 350.953,-108.514 349.45,-119.376 349.45,-119.376"/>
</g>
<!-- User&#45;&gt;Word -->
<g id="edge24" class="edge"><title>User&#45;&gt;Word</title>
<path fill="none" stroke="#85563f" d="M281.589,-171.883C274.571,-164.153 266.572,-155.579 259,-148 248.151,-137.14 235.705,-125.593 224.971,-115.898"/>
<ellipse fill="none" stroke="#85563f" cx="284.546" cy="-175.165" rx="4.00002" ry="4.00002"/>
<polygon fill="#85563f" stroke="#85563f" points="224.95,-115.878 220.51,-105.851 221.227,-112.54 217.505,-109.201 217.505,-109.201 217.505,-109.201 221.227,-112.54 214.501,-112.551 224.95,-115.878 224.95,-115.878"/>
</g>
<!-- User&#45;&gt;WordText -->
<g id="edge26" class="edge"><title>User&#45;&gt;WordText</title>
<path fill="none" stroke="#577188" d="M293.751,-166.532C284.244,-133.726 268.716,-80.1375 259.222,-47.3723"/>
<polygon fill="#577188" stroke="#577188" points="293.855,-166.893 292.316,-177.75 295.247,-171.695 296.638,-176.498 296.638,-176.498 296.638,-176.498 295.247,-171.695 300.961,-175.245 293.855,-166.893 293.855,-166.893"/>
<polygon fill="#577188" stroke="#577188" points="259.149,-47.1235 260.688,-36.2661 257.758,-42.3211 256.366,-37.5186 256.366,-37.5186 256.366,-37.5186 257.758,-42.3211 252.044,-38.7711 259.149,-47.1235 259.149,-47.1235"/>
</g>
<!-- User&#45;&gt;LogMovie -->
<g id="edge22" class="edge"><title>User&#45;&gt;LogMovie</title>
<path fill="none" stroke="#b4efb0" d="M332.52,-177.312C362.717,-159.812 408.967,-133.008 441.185,-114.336"/>
<ellipse fill="none" stroke="#b4efb0" cx="328.832" cy="-179.449" rx="4.00002" ry="4.00002"/>
<polygon fill="#b4efb0" stroke="#b4efb0" points="441.223,-114.314 452.131,-113.193 445.549,-111.807 449.875,-109.3 449.875,-109.3 449.875,-109.3 445.549,-111.807 447.619,-105.406 441.223,-114.314 441.223,-114.314"/>
</g>
<!-- User&#45;&gt;LogSoftware -->
<g id="edge16" class="edge"><title>User&#45;&gt;LogSoftware</title>
<path fill="none" stroke="#84ddc4" d="M337.383,-181.287C363.164,-171.497 399.026,-158.294 431,-148 475.624,-133.633 526.626,-119.388 565.416,-108.996"/>
<ellipse fill="none" stroke="#84ddc4" cx="333.459" cy="-182.784" rx="4.00001" ry="4.00001"/>
<polygon fill="#84ddc4" stroke="#84ddc4" points="565.847,-108.881 576.669,-110.653 570.678,-107.593 575.509,-106.305 575.509,-106.305 575.509,-106.305 570.678,-107.593 574.35,-101.957 565.847,-108.881 565.847,-108.881"/>
</g>
<!-- User&#45;&gt;WordHeading -->
<g id="edge28" class="edge"><title>User&#45;&gt;WordHeading</title>
<path fill="none" stroke="#b13715" d="M282.591,-169.187C275.813,-161.532 267.704,-153.685 259,-148 217.345,-120.792 191.623,-143.365 153,-112 132.102,-95.0293 117.35,-67.8583 108.42,-47.2572"/>
<polygon fill="#b13715" stroke="#b13715" points="282.969,-169.638 285.938,-180.195 286.179,-173.472 289.389,-177.306 289.389,-177.306 289.389,-177.306 286.179,-173.472 292.839,-174.417 282.969,-169.638 282.969,-169.638"/>
<polygon fill="#b13715" stroke="#b13715" points="108.311,-46.9919 108.664,-36.0317 106.407,-42.3686 104.503,-37.7453 104.503,-37.7453 104.503,-37.7453 106.407,-42.3686 100.342,-39.4589 108.311,-46.9919 108.311,-46.9919"/>
</g>
<!-- User&#45;&gt;LogSong -->
<g id="edge18" class="edge"><title>User&#45;&gt;LogSong</title>
<path fill="none" stroke="#3f36c4" d="M301.301,-168.049C301.734,-142.428 305.321,-103.529 321,-74 327.425,-61.8986 337.558,-51.0132 347.625,-42.1821"/>
<ellipse fill="none" stroke="#3f36c4" cx="301.281" cy="-172.196" rx="4" ry="4"/>
<polygon fill="#3f36c4" stroke="#3f36c4" points="347.916,-41.9407 358.486,-39.0197 351.764,-38.7485 355.613,-35.5562 355.613,-35.5562 355.613,-35.5562 351.764,-38.7485 352.74,-32.0927 347.916,-41.9407 347.916,-41.9407"/>
</g>
<!-- TermNormalizer -->
<g id="node15" class="node"><title>TermNormalizer</title>
<polygon fill="none" stroke="black" points="1741,-213 1617,-213 1617,-177 1741,-177 1741,-213"/>
<text text-anchor="middle" x="1679" y="-191.4" font-family="Times Roman,serif" font-size="14.00">TermNormalizer</text>
</g>
<!-- Skriptik -->
<g id="node20" class="node"><title>Skriptik</title>
<polygon fill="none" stroke="black" points="1829,-213 1759,-213 1759,-177 1829,-177 1829,-213"/>
<text text-anchor="middle" x="1794" y="-191.4" font-family="Times Roman,serif" font-size="14.00">Skriptik</text>
</g>
<!-- Authlogic::Session::Base -->
<g id="node26" class="node"><title>Authlogic::Session::Base</title>
<ellipse fill="none" stroke="black" cx="1353" cy="-195" rx="130.108" ry="18.3848"/>
<text text-anchor="middle" x="1353" y="-191.4" font-family="Times Roman,serif" font-size="14.00">Authlogic::Session::Base</text>
</g>
<!-- Authlogic::Session::Base&#45;&gt;UserSession -->
<g id="edge12" class="edge"><title>Authlogic::Session::Base&#45;&gt;UserSession</title>
<path fill="none" stroke="black" d="M1353,-176.292C1353,-157.773 1353,-129.603 1353,-111.247"/>
</g>
</g>
</svg>
